<svg xmlns="http://www.w3.org/2000/svg" width="30.867" height="23.512" viewBox="0 0 30.867 23.512">
  <g id="email" transform="translate(0)">
    <g id="Group_4" data-name="Group 4">
      <path id="Path_7" data-name="Path 7" d="M28.154,61H2.713A2.718,2.718,0,0,0,0,63.713V81.8a2.717,2.717,0,0,0,2.713,2.713H28.154A2.717,2.717,0,0,0,30.867,81.8V63.713A2.717,2.717,0,0,0,28.154,61Zm-.375,1.809L15.491,75.1,3.1,62.809ZM1.809,81.424V64.079l8.71,8.635ZM3.087,82.7,11.8,73.988l3.054,3.028a.9.9,0,0,0,1.276,0l2.978-2.978L27.779,82.7Zm25.971-1.279L20.39,72.756l8.668-8.669Z" transform="translate(0 -61)" fill="#fff"/>
    </g>
  </g>
</svg>
