<svg xmlns="http://www.w3.org/2000/svg" width="27.643" height="27.643" viewBox="0 0 27.643 27.643">
  <g id="phone-call" transform="translate(0)">
    <g id="Group_3" data-name="Group 3" transform="translate(0)">
      <path id="Path_4" data-name="Path 4" d="M22.2,42.929a2.725,2.725,0,0,0-1.975-.9,2.817,2.817,0,0,0-2,.9l-1.846,1.838c-.152-.082-.3-.158-.45-.233-.21-.105-.409-.2-.578-.309a20.055,20.055,0,0,1-4.808-4.375,11.817,11.817,0,0,1-1.577-2.485c.479-.438.923-.893,1.355-1.33.164-.163.327-.333.491-.5a2.674,2.674,0,0,0,0-4.037L9.22,29.9c-.181-.181-.368-.368-.543-.554-.351-.362-.719-.735-1.1-1.085a2.768,2.768,0,0,0-1.957-.858,2.864,2.864,0,0,0-1.986.858l-.012.012-1.986,2A4.265,4.265,0,0,0,.369,32.989a10.212,10.212,0,0,0,.748,4.328,25.11,25.11,0,0,0,4.47,7.444,27.489,27.489,0,0,0,9.155,7.158,14.281,14.281,0,0,0,5.141,1.517c.123.006.251.012.368.012A4.406,4.406,0,0,0,23.622,52c.006-.012.018-.017.023-.029a13.27,13.27,0,0,1,1.022-1.056c.251-.239.508-.49.76-.753a2.908,2.908,0,0,0,.882-2.018,2.8,2.8,0,0,0-.9-2Zm2.092,6.143c-.006,0-.006.006,0,0-.228.245-.462.467-.713.712a15.348,15.348,0,0,0-1.128,1.167,2.819,2.819,0,0,1-2.2.928c-.088,0-.181,0-.269-.006a12.686,12.686,0,0,1-4.557-1.365,25.947,25.947,0,0,1-8.624-6.744A23.675,23.675,0,0,1,2.6,36.769a8.318,8.318,0,0,1-.654-3.652,2.676,2.676,0,0,1,.806-1.733L4.745,29.4a1.329,1.329,0,0,1,.888-.414,1.25,1.25,0,0,1,.853.408l.018.018c.356.333.7.677,1.052,1.044.181.187.368.373.555.566L9.7,32.61a1.112,1.112,0,0,1,0,1.808c-.169.169-.333.338-.5.5-.491.5-.958.968-1.466,1.423-.012.012-.023.018-.029.029A1.189,1.189,0,0,0,7.4,37.7l.018.052a12.782,12.782,0,0,0,1.887,3.074l.006.006A21.433,21.433,0,0,0,14.5,45.543a7.981,7.981,0,0,0,.719.391c.21.1.409.2.578.309.023.012.047.029.07.041a1.268,1.268,0,0,0,.578.146,1.25,1.25,0,0,0,.888-.4l2-2a1.322,1.322,0,0,1,.882-.438,1.191,1.191,0,0,1,.841.426l.012.012,3.219,3.214A1.152,1.152,0,0,1,24.294,49.072Z" transform="translate(-0.344 -25.804)" fill="#fff"/>
      <path id="Path_5" data-name="Path 5" d="M245.593,87.491a7.522,7.522,0,0,1,6.125,6.125.784.784,0,0,0,.777.655,1.042,1.042,0,0,0,.134-.012.79.79,0,0,0,.649-.912,9.1,9.1,0,0,0-7.411-7.411.793.793,0,0,0-.912.643A.781.781,0,0,0,245.593,87.491Z" transform="translate(-230.655 -80.916)" fill="#fff"/>
      <path id="Path_6" data-name="Path 6" d="M261.9,12.216a14.977,14.977,0,0,0-12.2-12.2.788.788,0,1,0-.257,1.555,13.378,13.378,0,0,1,10.906,10.906.784.784,0,0,0,.777.655,1.044,1.044,0,0,0,.134-.012A.774.774,0,0,0,261.9,12.216Z" transform="translate(-234.265 0)" fill="#fff"/>
    </g>
  </g>
</svg>
