<svg xmlns="http://www.w3.org/2000/svg" width="27.882" height="26.718" viewBox="0 0 27.882 26.718">
  <g id="support" transform="translate(0 0)">
    <g id="Group_5" data-name="Group 5" transform="translate(0 0)">
      <path id="Path_8" data-name="Path 8" d="M17.928,27.349v-.485a5.059,5.059,0,0,0,.4-.359,7.214,7.214,0,0,0,1.826-4.021,3.546,3.546,0,0,0,2.29-1.361c.765-1.082.834-2.639.2-4.591a.528.528,0,0,0-.211-.274l-.29-.2a7.156,7.156,0,0,0-1.71-4.818c-1.42-1.6-3.6-2.406-6.486-2.417s-5.066.818-6.486,2.4a7.156,7.156,0,0,0-1.71,4.818l-.29.2a.528.528,0,0,0-.211.274c-.639,1.963-.57,3.509.2,4.591a3.557,3.557,0,0,0,2.29,1.377A7.219,7.219,0,0,0,9.558,26.5a5.147,5.147,0,0,0,.4.359v.485C7.933,27.739-.136,29.633,0,35.016a.528.528,0,0,0,.528.528H27.352a.528.528,0,0,0,.528-.528C28.017,29.633,19.949,27.739,17.928,27.349ZM7.41,21.3a2.29,2.29,0,0,1-1.119-.818l.026.005c-.528-.77-.575-1.937-.106-3.478l.385-.259a.528.528,0,0,0,.232-.491,6.237,6.237,0,0,1,1.435-4.343c1.193-1.351,3.108-2.026,5.673-2.037s4.48.686,5.694,2.037a6.237,6.237,0,0,1,1.435,4.343.528.528,0,0,0,.232.491l.385.259c.47,1.536.438,2.707-.106,3.478a2.3,2.3,0,0,1-1.124.818,3.514,3.514,0,0,0,.86-2.639,2.47,2.47,0,0,0-.85-1.478c-.227-5.277-3.926-5.868-5.52-5.868a6.652,6.652,0,0,0-1.008.074,6.643,6.643,0,0,0-1.008-.074c-1.583,0-5.277.58-5.52,5.868a2.47,2.47,0,0,0-.86,1.472A3.509,3.509,0,0,0,7.41,21.3Zm12.005-4.327a10.871,10.871,0,0,1-6.306-1.583.528.528,0,0,0-.686.069,6.153,6.153,0,0,1-3.91,1.456c.285-3.731,2.544-4.544,4.443-4.544a5.1,5.1,0,0,1,.9.074.527.527,0,0,0,.211,0,5.126,5.126,0,0,1,.9-.074c1.884,0,4.153.834,4.417,4.6ZM8.7,21.4l.021.005a.528.528,0,0,0-.132-.354,2.975,2.975,0,0,1-.966-2.206,1.4,1.4,0,0,1,.48-.892,7.9,7.9,0,0,0,4.749-1.5,11.9,11.9,0,0,0,5.858,1.583,6.959,6.959,0,0,0,1.087-.058,1.393,1.393,0,0,1,.475.865,2.99,2.99,0,0,1-.966,2.206.528.528,0,0,0-.132.354v.274L16.1,23.327a1.52,1.52,0,1,0,.475,1.1q0-.071,0-.142L19,22.99a5.805,5.805,0,0,1-1.414,2.786,4.7,4.7,0,0,1-3.5,1.309h-.264a4.712,4.712,0,0,1-3.493-1.3A6.727,6.727,0,0,1,8.7,21.4Zm6.823,3.029a.47.47,0,1,1-.47-.47A.47.47,0,0,1,15.521,24.43ZM13.41,34.457H1.073c.417-3.963,6.86-5.62,8.876-6.048v.945c0,1.2,1.456,2.111,3.462,2.264ZM11,29.354V27.533a6.38,6.38,0,0,0,2.8.591h.264a6.38,6.38,0,0,0,2.8-.591v1.821c0,.5-1.145,1.224-2.934,1.224S11,29.855,11,29.354Zm3.462,5.119v-2.86c2.005-.137,3.462-1.055,3.462-2.264v-.923c2.032.422,8.443,2.079,8.876,6.048Z" transform="translate(0 -8.826)" fill="#fff"/>
    </g>
  </g>
</svg>
