<svg xmlns="http://www.w3.org/2000/svg" width="39.078" height="29.766" viewBox="0 0 39.078 29.766">
  <g id="email" transform="translate(0 -61)">
    <g id="Group_4" data-name="Group 4" transform="translate(0 61)">
      <path id="Path_7" data-name="Path 7" d="M35.643,61H3.435A3.44,3.44,0,0,0,0,64.435v22.9a3.44,3.44,0,0,0,3.435,3.435H35.643a3.44,3.44,0,0,0,3.435-3.435v-22.9A3.44,3.44,0,0,0,35.643,61Zm-.474,2.29L19.612,78.847,3.92,63.29ZM2.29,86.857V64.9L13.317,75.83Zm1.619,1.619L14.943,77.442l3.866,3.833a1.145,1.145,0,0,0,1.616,0l3.77-3.77L35.169,88.476Zm32.879-1.619L25.814,75.883,36.788,64.909Z" transform="translate(0 -61)" fill="#fff"/>
    </g>
  </g>
</svg>
