<svg xmlns="http://www.w3.org/2000/svg" width="26" height="26" viewBox="0 0 26 26">
  <g id="Group_80" data-name="Group 80" transform="translate(-609 -704)">
    <path id="Path_12" data-name="Path 12" d="M227.815,144.843v-7.5h2.476l.391-2.487h-2.867v-1.247c0-.649.213-1.268,1.144-1.268h1.861v-2.482h-2.643c-2.222,0-2.828,1.463-2.828,3.491v1.5h-1.525v2.488h1.525v7.5Z" transform="translate(394.684 579.661)" fill="#fff"/>
    <path id="Path_11" data-name="Path 11" d="M26,13A13,13,0,1,0,13,26,13,13,0,0,0,26,13ZM1.182,13A11.818,11.818,0,1,1,13,24.818,11.818,11.818,0,0,1,1.182,13Z" transform="translate(609 704)" fill="#fff"/>
  </g>
</svg>
