<svg xmlns="http://www.w3.org/2000/svg" width="35" height="35" viewBox="0 0 35 35">
  <g id="phone-call" transform="translate(-0.344 0)">
    <g id="Group_3" data-name="Group 3" transform="translate(0.344 0)">
      <path id="Path_4" data-name="Path 4" d="M28.02,47.061a3.45,3.45,0,0,0-2.5-1.145,3.567,3.567,0,0,0-2.53,1.137L20.652,49.38c-.192-.1-.385-.2-.57-.3-.266-.133-.518-.259-.732-.391a25.393,25.393,0,0,1-6.088-5.54,14.963,14.963,0,0,1-2-3.146c.607-.554,1.169-1.13,1.716-1.684.207-.207.414-.421.621-.628a3.385,3.385,0,0,0,0-5.111l-2.02-2.016c-.229-.229-.466-.465-.688-.7-.444-.458-.91-.931-1.391-1.374a3.5,3.5,0,0,0-2.478-1.086A3.626,3.626,0,0,0,4.51,28.492l-.015.015L1.98,31.04A5.4,5.4,0,0,0,.375,34.475a12.93,12.93,0,0,0,.947,5.481A31.793,31.793,0,0,0,6.981,49.38a34.8,34.8,0,0,0,11.592,9.063,18.082,18.082,0,0,0,6.51,1.92c.155.007.318.015.466.015a5.578,5.578,0,0,0,4.268-1.832c.007-.015.022-.022.03-.037a16.8,16.8,0,0,1,1.295-1.337c.318-.3.644-.62.962-.953a3.682,3.682,0,0,0,1.117-2.556,3.547,3.547,0,0,0-1.139-2.533Zm2.648,7.778c-.007,0-.007.007,0,0-.289.31-.584.591-.9.9a19.433,19.433,0,0,0-1.428,1.477,3.569,3.569,0,0,1-2.781,1.174c-.111,0-.229,0-.34-.007a16.063,16.063,0,0,1-5.77-1.728A32.853,32.853,0,0,1,8.527,48.117,29.977,29.977,0,0,1,3.2,39.261a10.532,10.532,0,0,1-.829-4.624,3.388,3.388,0,0,1,1.021-2.194l2.523-2.519A1.683,1.683,0,0,1,7.04,29.4a1.583,1.583,0,0,1,1.08.517l.022.022c.451.421.88.857,1.332,1.322.229.236.466.473.7.716l2.02,2.016a1.408,1.408,0,0,1,0,2.29c-.215.214-.422.428-.636.635-.621.635-1.213,1.226-1.857,1.8-.015.015-.03.022-.037.037a1.5,1.5,0,0,0-.385,1.677L9.3,40.5a16.184,16.184,0,0,0,2.389,3.893l.007.007A27.137,27.137,0,0,0,18.27,50.37a10.1,10.1,0,0,0,.91.495c.266.133.518.259.732.391.03.015.059.037.089.052a1.606,1.606,0,0,0,.732.185,1.583,1.583,0,0,0,1.124-.51l2.53-2.526A1.674,1.674,0,0,1,25.5,47.9a1.507,1.507,0,0,1,1.065.539l.015.015,4.076,4.07A1.459,1.459,0,0,1,30.668,54.838Z" transform="translate(-0.344 -25.378)" fill="#fff"/>
      <path id="Path_5" data-name="Path 5" d="M245.766,87.907a9.524,9.524,0,0,1,7.756,7.756.993.993,0,0,0,.984.829,1.32,1.32,0,0,0,.17-.015,1,1,0,0,0,.821-1.154,11.516,11.516,0,0,0-9.384-9.384,1,1,0,0,0-1.154.814A.988.988,0,0,0,245.766,87.907Z" transform="translate(-226.852 -79.583)" fill="#fff"/>
      <path id="Path_6" data-name="Path 6" d="M265.388,15.467A18.963,18.963,0,0,0,249.936.015a1,1,0,1,0-.326,1.969,16.938,16.938,0,0,1,13.809,13.809.993.993,0,0,0,.984.829,1.321,1.321,0,0,0,.17-.015A.98.98,0,0,0,265.388,15.467Z" transform="translate(-230.403 0)" fill="#fff"/>
    </g>
  </g>
</svg>
