<svg xmlns="http://www.w3.org/2000/svg" width="36.45" height="34.928" viewBox="0 0 36.45 34.928">
  <g id="Group_5" data-name="Group 5" transform="translate(0)">
    <path id="Path_8" data-name="Path 8" d="M23.437,33.04v-.635a6.614,6.614,0,0,0,.517-.469,9.43,9.43,0,0,0,2.387-5.257,4.636,4.636,0,0,0,2.994-1.78c1-1.414,1.09-3.449.255-6a.69.69,0,0,0-.276-.359l-.379-.255a9.354,9.354,0,0,0-2.235-6.3c-1.856-2.09-4.7-3.146-8.478-3.16S11.6,9.9,9.743,11.958a9.354,9.354,0,0,0-2.235,6.3l-.379.255a.69.69,0,0,0-.276.359c-.835,2.566-.745,4.588.255,6a4.649,4.649,0,0,0,2.994,1.8A9.437,9.437,0,0,0,12.5,31.937a6.729,6.729,0,0,0,.517.469v.635C10.371,33.551-.177,36.027,0,43.064a.69.69,0,0,0,.69.69H35.758a.69.69,0,0,0,.69-.69C36.627,36.027,26.079,33.551,23.437,33.04ZM9.688,25.134a2.994,2.994,0,0,1-1.463-1.069l.034.007c-.69-1.007-.752-2.532-.138-4.546l.5-.338a.69.69,0,0,0,.3-.642,8.154,8.154,0,0,1,1.876-5.678c1.559-1.766,4.063-2.649,7.416-2.663s5.857.9,7.444,2.663a8.154,8.154,0,0,1,1.876,5.678.69.69,0,0,0,.3.642l.5.338c.614,2.008.573,3.539-.138,4.546a3.008,3.008,0,0,1-1.469,1.069,4.594,4.594,0,0,0,1.124-3.449,3.229,3.229,0,0,0-1.111-1.932c-.3-6.9-5.133-7.671-7.216-7.671a8.7,8.7,0,0,0-1.318.1,8.684,8.684,0,0,0-1.318-.1c-2.07,0-6.9.759-7.216,7.671a3.229,3.229,0,0,0-1.124,1.925A4.588,4.588,0,0,0,9.688,25.134Zm15.694-5.657a14.212,14.212,0,0,1-8.244-2.07.69.69,0,0,0-.9.09c-1.38,1.483-3.9,1.828-5.112,1.9.373-4.877,3.325-5.94,5.809-5.94a6.668,6.668,0,0,1,1.18.1.688.688,0,0,0,.276,0,6.7,6.7,0,0,1,1.18-.1c2.463,0,5.429,1.09,5.774,6.009ZM11.371,25.266l.028.007a.69.69,0,0,0-.172-.462,3.89,3.89,0,0,1-1.262-2.884,1.828,1.828,0,0,1,.628-1.166c.911,0,4.139-.172,6.209-1.959a15.556,15.556,0,0,0,7.658,2.07,9.1,9.1,0,0,0,1.421-.076,1.821,1.821,0,0,1,.621,1.131,3.909,3.909,0,0,1-1.262,2.884.69.69,0,0,0-.172.462v.359L21.05,27.784a1.987,1.987,0,1,0,.621,1.442q0-.093,0-.186l3.166-1.7a7.589,7.589,0,0,1-1.849,3.642A6.147,6.147,0,0,1,18.415,32.7H18.07a6.161,6.161,0,0,1-4.567-1.7C11.323,28.818,11.371,25.3,11.371,25.266Zm8.92,3.96a.614.614,0,1,1-.614-.614A.614.614,0,0,1,20.291,29.225ZM17.531,42.333H1.4c.545-5.181,8.968-7.347,11.6-7.906v1.235c0,1.566,1.9,2.759,4.526,2.96Zm-3.146-6.671v-2.38a8.341,8.341,0,0,0,3.663.773h.345a8.341,8.341,0,0,0,3.663-.773v2.38c0,.655-1.5,1.6-3.836,1.6S14.386,36.317,14.386,35.662Zm4.526,6.692V38.614c2.621-.179,4.526-1.38,4.526-2.96V34.448c2.656.552,11.038,2.718,11.6,7.906H18.911Z" transform="translate(0 -8.826)" fill="#fff"/>
  </g>
</svg>
