<svg xmlns="http://www.w3.org/2000/svg" width="26" height="26" viewBox="0 0 26 26">
  <g id="Group_82" data-name="Group 82" transform="translate(-681 -704)">
    <path id="Path_17" data-name="Path 17" d="M153.832,168.174c0-.131,0-.261-.008-.39a5.905,5.905,0,0,0,1.434-1.541,5.5,5.5,0,0,1-1.65.451,2.948,2.948,0,0,0,1.263-1.65,5.516,5.516,0,0,1-1.824.7,2.858,2.858,0,0,0-2.1-.989,2.9,2.9,0,0,0-2.872,2.994,3.192,3.192,0,0,0,.074.694,8.088,8.088,0,0,1-5.921-3.271,3.222,3.222,0,0,0,.889,4.1,2.749,2.749,0,0,1-1.3-.4v.039a3.051,3.051,0,0,0,2.3,3.023,2.72,2.72,0,0,1-.756.1,2.624,2.624,0,0,1-.54-.059,2.919,2.919,0,0,0,2.683,2.138,5.543,5.543,0,0,1-3.567,1.3,5.47,5.47,0,0,1-.685-.044,7.749,7.749,0,0,0,4.4,1.38C150.944,176.76,153.832,172.163,153.832,168.174Z" transform="translate(545.742 546.241)" fill="#fff"/>
    <path id="Path_18" data-name="Path 18" d="M26,13A13,13,0,1,0,13,26,13,13,0,0,0,26,13ZM1.182,13A11.818,11.818,0,1,1,13,24.818,11.818,11.818,0,0,1,1.182,13Z" transform="translate(681 704)" fill="#fff"/>
  </g>
</svg>
