<?xml version="1.0" encoding="UTF-8"?>
<svg width="55px" height="55px" viewBox="0 0 55 55" version="1.1" xmlns="http://www.w3.org/2000/svg" xmlns:xlink="http://www.w3.org/1999/xlink">
    <!-- Generator: Sketch 46 (44423) - http://www.bohemiancoding.com/sketch -->
    <title>Chat Copy</title>
    <desc>Created with Sketch.</desc>
    <defs>
        <circle id="path-1" cx="27.5" cy="27.5" r="27.5"></circle>
    </defs>
    <g id="Pages" stroke="none" stroke-width="1" fill="none" fill-rule="evenodd">
        <g id="25c-Chat-Enabled-MerchantSite" transform="translate(-1300.000000, -1000.000000)">
            <g id="Chat-Copy" transform="translate(1300.000000, 1000.000000)">
                <mask id="mask-2" fill="white">
                    <use xlink:href="#path-1"></use>
                </mask>
                <use id="Oval" fill="#3DDC48" xlink:href="#path-1"></use>
                <g id="whatsapp" mask="url(#mask-2)" fill-rule="nonzero" fill="#FEFEFE">
                    <g transform="translate(10.083333, 10.172852)" id="Shape">
                        <path d="M17.7593755,31.5227721 C14.8388971,31.5227721 12.1133561,30.6424479 9.83645798,29.144344 L4.30032981,30.9131147 L6.09490109,25.5635627 C4.36817569,23.1932571 3.35263755,20.2730175 3.35263755,17.1241565 C3.35263755,9.18427752 9.81113522,2.72577985 17.7510142,2.72577985 C25.6908932,2.72577985 32.1493909,9.18427752 32.1493909,17.1241565 C32.1493909,25.0637966 25.6908932,31.5225332 17.7510142,31.5225332 L17.7593755,31.5225332 L17.7593755,31.5227721 Z M17.7593755,0 C8.30395335,0 0.635218986,7.66945105 0.635218986,17.1243954 C0.635218986,20.3578249 1.53250462,23.3881945 3.08985422,25.9699213 L0.00023889394,35.1541988 L9.48098379,32.1154679 C12.0150399,33.5166841 14.8637163,34.2506994 17.7593755,34.2485519 C27.2145587,34.2485519 34.883532,26.5795787 34.883532,17.1243954 C34.8832931,7.66945105 27.2145587,0 17.7593755,0 Z"></path>
                        <path d="M13.7385516,10.0395178 C13.4592846,9.37085369 13.2476245,9.34553093 12.8245434,9.32833057 C12.6638891,9.31798194 12.5029629,9.31240529 12.3419776,9.31160799 C11.791566,9.31160799 11.2160705,9.47238361 10.8689576,9.8278578 C10.4458764,10.2595391 9.39617645,11.266716 9.39617645,13.332193 C9.39617645,15.39767 10.9028805,17.3953011 11.1059404,17.674807 C11.3176004,17.9538352 14.0433803,22.2539261 18.2756253,24.006452 C21.5852619,25.3777032 22.5673549,25.2506117 23.3205875,25.089836 C24.420933,24.8528533 25.8007844,24.0398972 26.1478973,23.058282 C26.4950102,22.076189 26.4950102,21.238149 26.3932414,21.060412 C26.2917115,20.8826749 26.0122055,20.7813838 25.5891244,20.5694849 C25.1660432,20.3578249 23.1089275,19.3420478 22.7195304,19.206595 C22.3384945,19.0627808 21.9746591,19.1136652 21.6870308,19.5200238 C21.2806722,20.087158 20.8829138,20.6628924 20.5611236,21.0097664 C20.3071794,21.2806722 19.8922206,21.3145951 19.5453466,21.1705421 C19.0797423,20.9760824 17.776337,20.5186005 16.1678641,19.0881036 C14.9234655,17.9793968 14.0770643,16.5997843 13.8317202,16.1850644 C13.5861373,15.7619833 13.8063975,15.5161614 14.0008571,15.2877788 C14.2125172,15.0252344 14.415577,14.839136 14.627237,14.593553 C14.8388971,14.3482089 14.9573885,14.2211174 15.0928413,13.9332502 C15.2368944,13.6539831 15.1351256,13.3661159 15.0335956,13.1544559 C14.9320657,12.9427959 14.0856645,10.8773189 13.7385516,10.0395178 L13.7385516,10.0395178 Z"></path>
                    </g>
                </g>
            </g>
        </g>
    </g>
</svg>