<svg xmlns="http://www.w3.org/2000/svg" width="26" height="26" viewBox="0 0 26 26">
  <g id="Group_175" data-name="Group 175" transform="translate(-717 -704)">
    <path id="Path_18" data-name="Path 18" d="M26,13A13,13,0,1,0,13,26,13,13,0,0,0,26,13ZM1.182,13A11.818,11.818,0,1,1,13,24.818,11.818,11.818,0,0,1,1.182,13Z" transform="translate(717 704)" fill="#fff"/>
    <g id="Group_25" data-name="Group 25" transform="translate(723 712)">
      <path id="Path_19" data-name="Path 19" d="M12.878,60.717a3.4,3.4,0,0,0-.585-1.568,2.037,2.037,0,0,0-1.428-.679h-.094c-1.9-.14-4.727-.164-4.774-.164-.023,0-2.879.023-4.751.211h-.07A1.963,1.963,0,0,0-.251,59.2,3.307,3.307,0,0,0-.86,60.788,23.414,23.414,0,0,0-1,63.175v1.1c0,1.17.14,2.364.14,2.387A3.4,3.4,0,0,0-.275,68.23a2.087,2.087,0,0,0,1.451.679.516.516,0,0,1,.187.023c1.077.094,4.493.14,4.634.14.023,0,2.879,0,4.774-.211h.07a1.963,1.963,0,0,0,1.428-.679,3.307,3.307,0,0,0,.608-1.591,23.414,23.414,0,0,0,.14-2.387V63.1C13.018,61.934,12.878,60.741,12.878,60.717Zm-.328,3.534a22.511,22.511,0,0,1-.14,2.34,3.121,3.121,0,0,1-.491,1.334,1.532,1.532,0,0,1-1.123.538h-.07c-1.872.14-4.7.14-4.727.14s-3.534-.047-4.564-.164c-.07,0-.14-.023-.211-.023A1.622,1.622,0,0,1,.053,67.9a2.877,2.877,0,0,1-.468-1.311c0-.023-.14-1.194-.14-2.34v-1.1a22.511,22.511,0,0,1,.14-2.34,3.055,3.055,0,0,1,.468-1.334A1.574,1.574,0,0,1,1.2,58.939h.07c1.872-.14,4.7-.164,4.727-.164s2.855.023,4.727.164h.094a1.532,1.532,0,0,1,1.123.538,3.39,3.39,0,0,1,.468,1.334,18.424,18.424,0,0,1,.14,2.34v1.1Z" transform="translate(1 -58.307)" fill="#fff"/>
      <path id="Path_20" data-name="Path 20" d="M190.678,162.06l-4.447-2.6a.212.212,0,0,0-.234,0,.246.246,0,0,0-.117.211v5.078a.246.246,0,0,0,.117.211.3.3,0,0,0,.234,0l4.447-2.481a.248.248,0,0,0,0-.421Zm-4.33,2.293V160.07l3.744,2.2Z" transform="translate(-180.755 -156.654)" fill="#fff"/>
    </g>
  </g>
</svg>
