<svg xmlns="http://www.w3.org/2000/svg" width="20.112" height="15.319" viewBox="0 0 20.112 15.319">
  <g id="email" transform="translate(-3)">
    <g id="Group_4" data-name="Group 4" transform="translate(3 0)">
      <path id="Path_7" data-name="Path 7" d="M18.344,61H1.768A1.771,1.771,0,0,0,0,62.768V74.552a1.77,1.77,0,0,0,1.768,1.768H18.344a1.77,1.77,0,0,0,1.768-1.768V62.768A1.77,1.77,0,0,0,18.344,61ZM18.1,62.178l-8.007,8.007L2.017,62.178ZM1.178,74.308v-11.3l5.675,5.627Zm.833.833,5.679-5.679,1.99,1.973a.589.589,0,0,0,.831,0l1.94-1.94L18.1,75.141Zm16.922-.833L13.285,68.66l5.648-5.648Z" transform="translate(0 -61)" fill="#fff"/>
    </g>
  </g>
</svg>
