<svg id="phone-call" xmlns="http://www.w3.org/2000/svg" width="18.27" height="18.27" viewBox="0 0 18.27 18.27">
  <g id="Group_3" data-name="Group 3" transform="translate(0 0)">
    <path id="Path_4" data-name="Path 4" d="M14.791,37.666a1.8,1.8,0,0,0-1.305-.6,1.862,1.862,0,0,0-1.321.594l-1.22,1.215c-.1-.054-.2-.1-.3-.154-.139-.069-.27-.135-.382-.2a13.255,13.255,0,0,1-3.178-2.892,7.81,7.81,0,0,1-1.043-1.642c.317-.289.61-.59.9-.879.108-.108.216-.22.324-.328a1.767,1.767,0,0,0,0-2.668L6.211,29.056c-.12-.12-.243-.243-.359-.366-.232-.239-.475-.486-.726-.717a1.829,1.829,0,0,0-1.294-.567,1.893,1.893,0,0,0-1.313.567l-.008.008L1.2,29.3A2.819,2.819,0,0,0,.36,31.1a6.75,6.75,0,0,0,.494,2.861,16.6,16.6,0,0,0,2.954,4.92A18.168,18.168,0,0,0,9.86,43.607a9.439,9.439,0,0,0,3.4,1c.081,0,.166.008.243.008a2.912,2.912,0,0,0,2.228-.956c0-.008.012-.012.015-.019a8.77,8.77,0,0,1,.676-.7c.166-.158.336-.324.5-.5a1.922,1.922,0,0,0,.583-1.334,1.852,1.852,0,0,0-.595-1.322Zm1.382,4.06s0,0,0,0c-.151.162-.305.308-.471.47a10.145,10.145,0,0,0-.745.771,1.863,1.863,0,0,1-1.452.613c-.058,0-.12,0-.178,0a8.385,8.385,0,0,1-3.012-.9,17.149,17.149,0,0,1-5.7-4.457,15.648,15.648,0,0,1-2.78-4.623A5.5,5.5,0,0,1,1.4,31.181a1.769,1.769,0,0,1,.533-1.145l1.317-1.315a.878.878,0,0,1,.587-.274.826.826,0,0,1,.564.27l.012.012c.236.22.46.447.7.69.12.123.243.247.367.374l1.054,1.053a.735.735,0,0,1,0,1.2c-.112.112-.22.224-.332.332-.324.332-.633.64-.969.941-.008.008-.015.012-.019.019a.786.786,0,0,0-.2.875l.012.035a8.448,8.448,0,0,0,1.247,2.032l0,0A14.165,14.165,0,0,0,9.7,39.393a5.272,5.272,0,0,0,.475.258c.139.069.27.135.382.2.015.008.031.019.046.027a.838.838,0,0,0,.382.1.826.826,0,0,0,.587-.266l1.321-1.319a.874.874,0,0,1,.583-.289.787.787,0,0,1,.556.281l.008.008,2.128,2.124A.762.762,0,0,1,16.173,41.726Z" transform="translate(-0.344 -26.347)" fill="#fff"/>
    <path id="Path_5" data-name="Path 5" d="M245.373,86.96a4.972,4.972,0,0,1,4.048,4.048.518.518,0,0,0,.514.433.691.691,0,0,0,.089-.008.522.522,0,0,0,.429-.6,6.011,6.011,0,0,0-4.9-4.9.524.524,0,0,0-.6.425A.516.516,0,0,0,245.373,86.96Z" transform="translate(-235.5 -82.615)" fill="#fff"/>
    <path id="Path_6" data-name="Path 6" d="M257.447,8.074A9.9,9.9,0,0,0,249.381.008a.521.521,0,1,0-.17,1.028,8.842,8.842,0,0,1,7.208,7.208.518.518,0,0,0,.514.433.69.69,0,0,0,.089-.008A.512.512,0,0,0,257.447,8.074Z" transform="translate(-239.185 0)" fill="#fff"/>
  </g>
</svg>
