<svg id="support" xmlns="http://www.w3.org/2000/svg" width="19.123" height="18.324" viewBox="0 0 19.123 18.324">
  <g id="Group_5" data-name="Group 5" transform="translate(0 0)">
    <path id="Path_8" data-name="Path 8" d="M12.3,21.53V21.2a3.47,3.47,0,0,0,.271-.246,4.948,4.948,0,0,0,1.252-2.758,2.432,2.432,0,0,0,1.571-.934,3.486,3.486,0,0,0,.134-3.149.362.362,0,0,0-.145-.188l-.2-.134a4.908,4.908,0,0,0-1.173-3.3A5.692,5.692,0,0,0,9.559,8.826a5.716,5.716,0,0,0-4.448,1.643,4.908,4.908,0,0,0-1.173,3.3l-.2.134a.362.362,0,0,0-.145.188,3.484,3.484,0,0,0,.134,3.149,2.439,2.439,0,0,0,1.571.945,4.951,4.951,0,0,0,1.256,2.762,3.53,3.53,0,0,0,.271.246v.333C5.441,21.8-.093,23.1,0,26.789a.362.362,0,0,0,.362.362h18.4a.362.362,0,0,0,.362-.362C19.216,23.1,13.682,21.8,12.3,21.53ZM5.082,17.382a1.571,1.571,0,0,1-.767-.561l.018,0a2.781,2.781,0,0,1-.072-2.385l.264-.177a.362.362,0,0,0,.159-.337,4.278,4.278,0,0,1,.984-2.979,4.989,4.989,0,0,1,3.891-1.4,4.992,4.992,0,0,1,3.905,1.4,4.278,4.278,0,0,1,.984,2.979.362.362,0,0,0,.159.337l.264.177a2.744,2.744,0,0,1-.072,2.385,1.578,1.578,0,0,1-.771.561,2.41,2.41,0,0,0,.59-1.81,1.694,1.694,0,0,0-.583-1.013c-.156-3.619-2.693-4.025-3.786-4.025a4.562,4.562,0,0,0-.691.051,4.556,4.556,0,0,0-.691-.051c-1.086,0-3.619.4-3.786,4.025a1.694,1.694,0,0,0-.59,1.01A2.407,2.407,0,0,0,5.082,17.382Zm8.234-2.968a7.456,7.456,0,0,1-4.325-1.086.362.362,0,0,0-.471.047,4.22,4.22,0,0,1-2.682,1c.2-2.559,1.745-3.116,3.047-3.116a3.5,3.5,0,0,1,.619.051.361.361,0,0,0,.145,0,3.516,3.516,0,0,1,.619-.051c1.292,0,2.848.572,3.029,3.152ZM5.966,17.451l.014,0a.362.362,0,0,0-.09-.242A2.041,2.041,0,0,1,5.227,15.7a.959.959,0,0,1,.329-.612A5.417,5.417,0,0,0,8.814,14.06a8.161,8.161,0,0,0,4.017,1.086,4.773,4.773,0,0,0,.746-.04.955.955,0,0,1,.326.594,2.051,2.051,0,0,1-.662,1.513.362.362,0,0,0-.09.242v.188l-2.106,1.129a1.042,1.042,0,1,0,.326.756q0-.049,0-.1l1.661-.89a3.981,3.981,0,0,1-.97,1.911,3.225,3.225,0,0,1-2.4.9H9.48a3.232,3.232,0,0,1-2.4-.894A4.614,4.614,0,0,1,5.966,17.451Zm4.68,2.077a.322.322,0,1,1-.322-.322A.322.322,0,0,1,10.645,19.528ZM9.2,26.4H.736c.286-2.718,4.705-3.855,6.088-4.148v.648c0,.822,1,1.448,2.374,1.553Zm-1.65-3.5V21.656a4.376,4.376,0,0,0,1.922.405H9.65a4.376,4.376,0,0,0,1.922-.405v1.249c0,.344-.785.84-2.012.84S7.547,23.249,7.547,22.905Zm2.374,3.511V24.454C11.3,24.36,12.3,23.73,12.3,22.9v-.633c1.393.29,5.791,1.426,6.088,4.148H9.921Z" transform="translate(0 -8.826)" fill="#fff"/>
  </g>
</svg>
